<?xml version="1.0" encoding="utf-8"?>
<!-- Generator: Adobe Illustrator 16.0.0, SVG Export Plug-In . SVG Version: 6.00 Build 0)  -->
<!DOCTYPE svg PUBLIC "-//W3C//DTD SVG 1.1//EN" "http://www.w3.org/Graphics/SVG/1.1/DTD/svg11.dtd">
<svg version="1.1" id="Layer_1" xmlns="http://www.w3.org/2000/svg" xmlns:xlink="http://www.w3.org/1999/xlink" x="0px" y="0px"
	 width="800px" height="600px" viewBox="0 0 800 600" enable-background="new 0 0 800 600" xml:space="preserve">
<g>
	
		<linearGradient id="SVGID_1_" gradientUnits="userSpaceOnUse" x1="290.2612" y1="424.9502" x2="-33.6414" y2="704.2575" gradientTransform="matrix(1 0 0 -1 234 745)">
		<stop  offset="0" style="stop-color:#4982F6"/>
		<stop  offset="1" style="stop-color:#4999F6"/>
	</linearGradient>
	<polygon fill="url(#SVGID_1_)" points="102.809,126.225 378.538,4.428 442.392,439.413 	"/>
	
		<linearGradient id="SVGID_2_" gradientUnits="userSpaceOnUse" x1="106.4878" y1="478.1309" x2="388.1106" y2="752.7134" gradientTransform="matrix(1 0 0 -1 234 745)">
		<stop  offset="0" style="stop-color:#FC9509"/>
		<stop  offset="1" style="stop-color:#FCBC09"/>
	</linearGradient>
	<polygon fill="url(#SVGID_2_)" points="703.61,33.428 439.489,404.619 268.248,103.024 	"/>
	<g>
		<path fill="#27497C" d="M657.487,205.247c-3.409-30.564-14.468-56.277-33.208-77.122c-2.021-2.249-4.107-4.456-6.305-6.592
			c-24.931-24.105-59.505-39.414-103.677-45.958c4.343-2.813,10.079-5.195,17.27-7.136c4.941-2.731,7.419-7.106,7.438-13.145
			c0.017-6.854-6.279-10.984-18.891-12.386L401.66,42.603l-0.868,18.096l-0.255,98.712c-0.044,17.823-6.931,29.599-20.655,35.32
			l-7.405,0.803l-2.469-0.006c-12.888-0.033-21.918-7.46-27.091-22.28c-2.04-6.306-3.95-10.155-5.729-11.532l-4.113-0.01
			c-15.08-0.039-24.453,19.407-28.118,58.334c2.107,33.322,10.836,51.44,26.186,54.361l4.936,0.013
			c2.063-2.326,5.095-8.901,9.098-19.721c6.742-9.854,14.983-14.767,24.718-14.745c15.101,0.038,24.785,10.341,29.081,30.833
			c0.152,0.714,0.31,1.408,0.449,2.148l0.653,65.812l-0.075,29.617l0.141,4.552c18.422,4.37,43.448,7.838,75.229,10.376
			c54.517,4.357,97.884-6.221,130.099-31.729c31.222-24.547,48.709-60.25,52.453-107.108c0.078-0.984,0.107-1.937,0.174-2.911
			C658.962,228.767,658.762,216.666,657.487,205.247z M576.179,262.02c-1.878,23.496-9.92,40.749-24.125,51.762
			c-11.293,8.895-25.286,13.196-41.985,12.906l12.483-121.861c16.018,0.627,28.853,5.116,38.507,13.461
			C572.663,228.364,577.703,242.939,576.179,262.02z"/>
		<path fill="#3F2D05" d="M357.418,261.193c-5.643,15.004-8.654,19.624-11.062,22.338l-4.115,4.639l-12.412-0.03l-1.255-0.237
			c-22.222-4.227-34.781-26.764-37.327-66.985l-0.067-1.08l0.103-1.077c1.648-17.506,6.664-70.785,41.752-70.785l8.862,0.022
			l3.694,2.857c4.28,3.308,7.292,8.571,10.402,18.168c4.45,12.75,10.698,12.768,14.053,12.776l1.708,0.004l4.477-0.487
			c1.561-0.772,3.085-1.759,4.475-3.084c2.225-49.828,4.029-85.635,5.411-107.413H239.126
			c6.817,56.527,11.575,104.668,14.272,144.437c4.263,71.579,6.46,114.467,6.603,128.667c-8.237,1.279-17.113,1.138-26.629-0.424
			c-18.037-4.115-29.256-7.171-33.657-9.16c2.271,13.917,4.046,24.852,5.325,32.805c1.987,14.771,3.268,25.067,3.836,30.893
			c23.433,4.688,45.375,7.03,65.826,7.03c37.637,0,72.005-11.787,103.107-35.362c-0.86-33.747-0.82-71.453,0.107-113.085
			c-3.125-2.887-6.219-2.92-8.059-2.924C366.614,253.691,362.352,254.577,357.418,261.193z"/>
	</g>
	<path fill="#4982F6" d="M660.921,194.944c-3.408-30.563-14.469-56.276-33.207-77.122c-2.02-2.249-4.105-4.455-6.305-6.589
		c-24.931-24.107-59.503-39.414-103.678-45.958c4.343-2.813,10.082-5.196,17.27-7.137c4.942-2.73,7.422-7.107,7.438-13.144
		c0.017-6.856-6.279-10.985-18.891-12.389l-118.454-0.304l-0.869,18.094l-0.254,98.713c-0.045,17.824-6.93,29.596-20.655,35.321
		l-7.404,0.803l-2.469-0.007c-12.887-0.032-21.919-7.459-27.092-22.279c-2.038-6.307-3.949-10.156-5.729-11.531l-4.111-0.011
		c-15.081-0.039-24.455,19.406-28.121,58.336c2.109,33.321,10.836,51.44,26.186,54.36l4.936,0.014
		c2.063-2.326,5.095-8.9,9.097-19.722c6.747-9.853,14.986-14.769,24.718-14.745c15.101,0.041,24.786,10.341,29.082,30.835
		c0.15,0.714,0.312,1.408,0.447,2.147l0.654,65.813l-0.078,29.611l0.142,4.55c18.419,4.375,43.446,7.84,75.228,10.381
		c54.515,4.354,97.882-6.221,130.097-31.729c31.223-24.548,48.708-60.251,52.454-107.11c0.078-0.984,0.107-1.935,0.175-2.911
		C662.395,218.462,662.196,206.362,660.921,194.944z M579.613,251.717c-1.878,23.494-9.918,40.747-24.125,51.761
		c-11.293,8.896-25.286,13.198-41.986,12.908l12.483-121.861c16.019,0.626,28.854,5.119,38.507,13.463
		C576.1,218.059,581.138,232.636,579.613,251.717z"/>
	
		<linearGradient id="SVGID_3_" gradientUnits="userSpaceOnUse" x1="253.9238" y1="393.6338" x2="248.3672" y2="682.576" gradientTransform="matrix(1 0 0 -1 234 745)">
		<stop  offset="0" style="stop-color:#FFFFFF"/>
		<stop  offset="1" style="stop-color:#FFFFFF;stop-opacity:0"/>
	</linearGradient>
	<path opacity="0.35" fill="url(#SVGID_3_)" enable-background="new    " d="M501.951,360.201c-7.082,0-14.502-0.305-22.051-0.909
		c-25.162-2.009-46.188-4.634-62.708-7.819l0.057-22.995l-0.666-67.183l-0.22-1.177c-0.115-0.613-0.237-1.199-0.367-1.786
		l-0.133-0.63c-7.606-36.294-29.894-41.762-42.504-41.792c-10.05,0-24.363,3.598-36.086,20.726l-0.959,1.401l-0.589,1.595
		c-1.26,3.411-2.322,6.106-3.203,8.232c-5.313-5.566-9.049-18.996-10.349-37.915c2.612-26.649,7.64-38.26,11.173-42.592
		c9.659,27.471,29.229,31.582,40.059,31.61l3.234,0.006l10.132-1.097l1.833-0.764c13.236-5.521,29.027-18.323,29.107-47.963
		l0.248-98.401l0.225-4.671l104.542,0.27c0.956,0.118,1.8,0.249,2.545,0.387c-5.845,1.968-10.795,4.288-15.012,7.02l-30.51,19.786
		l35.974,5.33c41.103,6.087,73.444,20.299,96.136,42.241c1.754,1.705,3.609,3.639,5.639,5.903
		c16.92,18.818,26.656,41.542,29.77,69.458c1.177,10.543,1.363,21.929,0.556,33.841c0,0-0.126,2.301-0.157,2.722
		c-3.459,43.293-18.918,75.152-47.251,97.428c-24.938,19.746-58.054,29.744-98.459,29.744
		C501.951,360.201,501.951,360.201,501.951,360.201z M498.313,329.862l14.952,0.258l1.804,0.019c19.091,0,35.555-5.34,48.918-15.867
		c17.239-13.366,27.128-34.064,29.32-61.46c1.884-23.585-4.783-42.158-19.813-55.2c-12.045-10.415-27.842-16.065-46.974-16.814
		l-12.885-0.503L498.313,329.862z"/>
	<path fill="#FCBC09" d="M360.853,250.888c-5.643,15.006-8.651,19.625-11.062,22.341l-4.115,4.639l-12.414-0.029l-1.256-0.238
		c-22.22-4.227-34.78-26.764-37.327-66.985l-0.066-1.081l0.099-1.077c1.651-17.507,6.665-70.785,41.752-70.785l8.861,0.022
		l3.695,2.857c4.279,3.307,7.291,8.571,10.401,18.168c4.45,12.751,10.697,12.768,14.056,12.776l1.708,0.004l4.475-0.487
		c1.56-0.773,3.085-1.757,4.475-3.083c2.226-49.828,4.029-85.634,5.414-107.414H242.556c6.818,56.527,11.575,104.668,14.273,144.436
		c4.262,71.578,6.464,114.468,6.605,128.671c-8.237,1.278-17.113,1.136-26.629-0.425c-18.035-4.119-29.254-7.173-33.658-9.161
		c2.273,13.919,4.048,24.855,5.327,32.807c1.988,14.771,3.266,25.069,3.834,30.893c23.433,4.688,45.377,7.029,65.826,7.029
		c37.636,0,72.005-11.786,103.107-35.362c-0.86-33.746-0.821-71.453,0.107-113.086c-3.125-2.883-6.219-2.918-8.059-2.923
		C370.049,243.389,365.786,244.276,360.853,250.888z"/>
	
		<linearGradient id="SVGID_4_" gradientUnits="userSpaceOnUse" x1="64.6714" y1="375.9238" x2="62.8192" y2="650.0504" gradientTransform="matrix(1 0 0 -1 234 745)">
		<stop  offset="0" style="stop-color:#FFFFFF"/>
		<stop  offset="1" style="stop-color:#FFFFFF;stop-opacity:0"/>
	</linearGradient>
	<path opacity="0.45" fill="url(#SVGID_4_)" enable-background="new    " d="M278.133,381.023c-16.588,0-34.484-1.657-53.316-4.928
		c-0.677-5.56-1.583-12.554-2.734-21.091c0,0-1.18-7.36-1.872-11.62c3.828,0.944,8.298,2.009,13.532,3.2l0.415,0.096l0.416,0.068
		c5.941,0.977,11.777,1.474,17.348,1.474c4.649,0,9.229-0.346,13.616-1.026l11.747-1.826l-0.117-11.888
		c-0.143-14.52-2.31-56.829-6.627-129.351c-2.464-36.29-6.67-79.894-12.519-129.879h116.943c-1.066,18.742-2.322,43.975-3.8,76.356
		c-3.634-10.042-7.765-16.306-13.747-20.93l-7.39-5.713l-13.532-0.034c-31.605,0-50.256,27.998-55.461,83.221l-0.2,2.162
		l0.135,2.147c2.99,47.294,19.301,74.081,48.473,79.63l2.513,0.479l19.883,0.046l8.229-9.273c2.212-2.497,4.418-5.634,7.086-11.042
		c-0.408,29.116-0.345,56.327,0.183,81.227C340.269,371.44,310.289,381.023,278.133,381.023z"/>
	<g>
		<path fill="#FCBC09" d="M20.889,578.594c4.966,4.018,9.996,4.392,15.088,1.122c5.094-3.269,8.244-9.905,9.447-19.91
			c1.206-10.002,0.129-26.287-3.229-48.853h31.874c-2.336,6.505-3.815,18.931-4.436,37.298c-0.218,4.492-0.547,8.345-0.986,11.552
			c-1.13,8.509-3.469,15.282-7.01,20.321c-4.346,6.207-10.861,10.497-19.553,12.869c-7.338,1.973-14.019,1.514-20.043-1.367
			c-6.353-3.142-10.679-8.507-12.979-16.106h0.055c-0.403-1.31-0.604-2.717-0.604-4.212c0-3.871,1.358-7.175,4.081-9.915
			c2.72-2.735,6.014-4.109,9.884-4.109c3.833,0,7.082,1.656,9.749,4.961c2.663,3.305,3.066,7.328,1.206,12.073
			C31.569,579.069,27.39,580.492,20.889,578.594z"/>
		<path fill="#FCBC09" d="M149.919,511.064c-0.256,0-1.186,3.188-2.792,9.561c-1.609,6.371-2.283,15.577-2.026,27.629
			c0.183,7.227-0.054,12.853-0.713,16.865c-1.06,6.574-3.596,12.378-7.612,17.417c-2.922,3.647-6.792,6.388-11.612,8.212
			c-4.601,1.754-9.438,2.449-14.514,2.084c-5.148-0.368-9.731-1.771-13.745-4.215c-4.345-2.667-7.484-6.278-9.422-10.847
			c-1.752-4.162-2.737-8.381-2.956-12.651c-0.109-2.848-0.128-6.258-0.057-10.241l0.167-5.041l0.109-5.035
			c0.181-8.03-0.292-14.512-1.423-19.441c-0.476-2.225-1.06-4.51-1.752-6.849c-0.84-2.881-1.68-5.365-2.521-7.448h31.709
			c-2.262,3.289-3.97,8.664-5.12,16.129c-1.149,7.471-1.597,13.556-1.342,18.265c0.11,1.935,0.237,3.543,0.384,4.819
			c0.254,1.858,0.603,3.504,1.04,4.929c1.13,3.613,3.031,6.062,5.696,7.336c5.332,2.558,9.382,0.131,12.158-7.28
			c1.023-2.737,1.753-5.896,2.19-9.476c0.403-2.995,0.53-5.569,0.383-7.723c-1.022-12.596-2.92-21.56-5.696-26.888l-0.053-0.114
			h29.521V511.064z"/>
		<path fill="#FCBC09" d="M229.932,511.064c-4.164,11.941-5.386,28.953-3.669,51.043c0.547,6.902,1.35,13.913,2.41,21.03
			c0.326,2.229,0.673,4.329,1.039,6.302c0.111,0.622,0.2,1.203,0.273,1.752c0.038,0.144,0.074,0.29,0.111,0.438v0.108l0.053,0.056
			h-30.231c-1.279-5.258-2.993-10.334-5.149-15.226c-1.716-3.904-3.669-7.575-5.86-11.004c-1.569-2.522-3.158-4.749-4.763-6.686
			c-0.512-0.622-0.97-1.148-1.37-1.591c-0.146-0.14-0.255-0.251-0.329-0.325c-0.11-0.072-0.146-0.089-0.11-0.055
			c-0.037-0.071-0.09,0.164-0.164,0.715c-0.111,0.582-0.22,1.329-0.33,2.241c-0.22,2.56-0.328,5.278-0.328,8.163
			c0.11,8.98,1.515,16.904,4.217,23.769h-27.876v-0.055l0.054-0.11v-0.162l0.054-0.221c0.073-0.44,0.164-0.935,0.275-1.481
			c0.326-1.716,0.655-3.541,0.986-5.476c1.022-6.28,1.807-12.652,2.355-19.116c1.827-20.626,1.114-38.497-2.136-53.611h30.286
			c0.913,7.56,2.301,13.634,4.163,18.238c2.116,5.365,5.84,11.48,11.173,18.346c-0.221-7.268-0.751-15.1-1.588-23.492
			c-0.729-7.268-1.333-11.796-1.806-13.587h28.261V511.064z"/>
		<path fill="#FCBC09" d="M236.064,591.793c4.164-35.779,4.143-62.486-0.053-80.122c-0.038-0.185-0.054-0.328-0.054-0.438
			l-0.055-0.169h30.505c-5.075,25.966-6.88,45.717-5.421,59.259c1.459,13.548,2.3,20.7,2.519,21.472h-27.44V591.793z"/>
		<path fill="#FCBC09" d="M335.682,537.191c1.79,5.073,2.684,10.169,2.684,15.282c0,11.901-3.304,21.74-9.911,29.518
			c-6.462,7.594-14.458,11.389-23.986,11.389c-9.531,0-17.545-3.795-24.045-11.389c-6.607-7.777-9.911-17.616-9.911-29.518
			c0-9.641,2.883-18.568,8.653-26.784c7.01-10.04,14.658-15.517,22.945-16.429c4.82-0.547,9.529,0.383,14.132,2.792
			c4.271,2.226,7.959,5.422,11.061,9.586C330.919,526.42,333.712,531.602,335.682,537.191z M304.851,571.802
			c3.285,0,6.042-1.88,8.269-5.64c2.301-3.869,3.449-8.764,3.449-14.676c0-2.52-0.309-5.042-0.93-7.561
			c-0.694-2.771-1.661-5.344-2.902-7.723c-1.06-2.041-2.336-3.629-3.833-4.765c-1.609-1.165-3.232-1.623-4.875-1.366
			c-2.883,0.437-5.533,3.142-7.943,8.104c-2.008,4.089-3.011,8.525-3.011,13.311c0,5.912,1.148,10.808,3.449,14.676
			C298.752,569.922,301.529,571.802,304.851,571.802z"/>
		<path fill="#FCBC09" d="M414.766,571.2c0.801,4.054,0.746,7.815-0.164,11.281c-0.292,1.06-0.64,2.065-1.041,3.011
			c-1.239,2.705-2.994,4.929-5.255,6.684c-2.263,1.716-4.802,2.775-7.612,3.178c-5.881,0.803-10.789-1.148-14.731-5.861
			c-1.46-1.717-2.631-3.945-3.504-6.684c-0.33-1.093-0.639-2.354-0.932-3.776l-0.383-1.92l-0.382-1.918l-0.438-2.467l-0.494-2.52
			c-0.437-1.856-0.948-3.463-1.533-4.813c-1.532-3.47-3.997-5.896-7.394-7.284l-1.041-0.329c0.803,11.902,2.483,23.13,5.039,33.681
			h-32.421v-0.163c0.036-0.146,0.074-0.311,0.109-0.495c4.052-26.21,4.09-52.829,0.111-79.848h38.553
			c11.318,0,19.295,3.378,23.934,10.132c1.609,2.339,2.738,5.005,3.396,7.995c0.257,1.098,0.438,2.213,0.547,3.344
			c0.073,0.803,0.108,1.586,0.108,2.358c0,3.282-0.729,6.276-2.188,8.979c-1.68,3.175-4.199,5.497-7.558,6.954
			c-1.208,0.547-3.47,1.351-6.791,2.41c1.167,1.531,2.206,3.229,3.123,5.094l1.533,3.23l1.423,3.282
			c0.509,1.169,0.766,1.771,0.766,1.811c0.73,1.605,1.443,2.901,2.137,3.886c0.91,1.389,1.935,2.377,3.065,2.962
			c2.08,1.168,4.29,0.82,6.627-1.044c1.169-0.912,2.137-1.951,2.901-3.12L414.766,571.2z M383.44,535.219
			c0.292-2.628-1.442-4.544-5.203-5.748c-3.03-0.948-6.735-1.316-11.119-1.099c0.036,4.929,0.257,9.656,0.657,14.187
			C377.524,543.908,382.746,541.46,383.44,535.219z"/>
		<path fill="#4982F6" d="M511.481,547.926c0.875,10.038-0.912,19.166-5.366,27.38c-2.994,5.477-7.138,9.624-12.433,12.433
			c-4.999,2.667-10.731,3.998-17.194,3.998h-15.115c0.035,0.111-6.281,0.036-18.951-0.219c0.256-0.912,0.529-2.082,0.821-3.509
			c0.404-1.896,0.769-3.923,1.096-6.077c0.986-5.989,1.679-12.156,2.085-18.511c1.238-18.877-0.133-36.44-4.109-52.688h3.451
			l1.587,0.056h1.535c2.481,0,4.654,0,6.515,0c13.913-0.071,24.062,0.912,30.451,2.96c10.258,3.21,17.616,9.876,22.072,19.986
			C509.82,538.084,511.006,542.815,511.481,547.926z M469.915,572.021c4.744,0,8.854-1.661,12.325-4.983
			c3.176-3.066,5.256-6.881,6.239-11.443c0.95-4.638,0.53-8.893-1.257-12.761c-1.973-4.236-5.314-7.177-10.021-8.82
			c-0.186-0.071-0.478-0.182-0.877-0.329l-0.987-0.325c-0.843-0.293-1.532-0.509-2.081-0.658c-1.531-0.404-2.374-0.294-2.521,0.328
			c-1.568,6.389-2.224,14.75-1.968,25.084c0.071,3.648,0.252,6.951,0.548,9.913C469.532,570.688,469.732,572.021,469.915,572.021z"
			/>
		<path fill="#4982F6" d="M557.702,573.061c2.776,0,5.386-0.838,7.834-2.516c2.334-1.606,4.326-3.836,5.968-6.684
			c0.326,11.318,1.752,20.63,4.27,27.932h-59.858c0.255-0.841,0.528-2.027,0.822-3.563c0.401-1.969,0.766-4.087,1.095-6.352
			c0.989-6.207,1.679-12.575,2.082-19.11c1.241-19.279-0.13-36.512-4.106-51.704h60.188h-0.055v0.114
			c-0.038,0.143-0.056,0.293-0.056,0.438c-0.111,0.437-0.201,0.932-0.272,1.478c-0.329,1.717-0.642,3.561-0.932,5.529
			c-0.948,6.246-1.699,12.47-2.246,18.681c-1.568-3.362-3.633-6.029-6.188-7.997c-2.629-2.047-5.477-3.07-8.545-3.07
			c-4.307,0-8.086,1.9-11.337,5.698c-3.213,3.76-5.131,8.47-5.751,14.127c2.704-2.005,5.459-3.414,8.272-4.219
			c3.688-1.056,7.316-1.035,10.898,0.056c3.249,0.988,5.457,2.431,6.625,4.328c1.133,1.645,1.699,3.47,1.699,5.476
			c0,2.596-0.914,4.819-2.74,6.686c-1.858,1.861-4.104,2.793-6.735,2.793c-2.19,0-4.142-0.694-5.858-2.084
			c-1.718-1.351-2.831-3.066-3.342-5.148c-2.227,0.912-3.891,2.427-4.983,4.546c-1.058,2.045-1.333,4.179-0.823,6.407
			c0.549,2.337,1.918,4.234,4.109,5.697C550.256,572.24,553.576,573.061,557.702,573.061z"/>
		<path fill="#4982F6" d="M625.449,591.793c1.75-5.11,2.52-11.229,2.295-18.349c-4.889,2.226-10.696,2.375-17.413,0.438
			c-0.183,6.937,0.601,12.907,2.357,17.907h-32.039c0.071-0.328,2.826-8.424,8.269-24.289c5.44-15.864,7.797-34.677,7.064-56.438
			h46.168c-1.828,18.805,0.246,36.877,6.215,54.221c5.97,17.345,8.993,26.178,9.065,26.509H625.449L625.449,591.793z
			 M612.414,556.468c4.599,0.693,8.942,0.328,13.035-1.095c-1.463-7.157-3.599-14.804-6.411-22.946
			C616.12,540.969,613.91,548.985,612.414,556.468z"/>
		<path fill="#4982F6" d="M703.324,574.923c2.738,0,5.568-0.946,8.488-2.847c2.338-1.498,4.673-3.579,7.011-6.24
			c2.665-3.067,4.837-6.116,6.516-9.147v35.106H665.48c0.255-0.879,0.53-2.027,0.821-3.455c0.404-1.896,0.766-3.922,1.096-6.075
			c0.984-5.99,1.679-12.177,2.082-18.565c1.238-18.877-0.13-36.418-4.107-52.632h31.382c-0.039,0.187-0.165,0.787-0.386,1.811
			c-0.145,0.583-0.256,1.077-0.326,1.48c-0.146,0.656-0.293,1.296-0.439,1.913c-0.766,3.546-1.442,7.012-2.025,10.409
			c-1.861,10.696-2.792,20.025-2.792,27.982c0,2.628,0.129,4.913,0.383,6.847c0.294,2.591,0.841,4.784,1.644,6.577
			C694.782,572.643,698.289,574.923,703.324,574.923z"/>
		<path fill="#4982F6" d="M774.686,547.815c6.28,3.652,10.917,8.105,13.912,13.362c3.576,6.39,3.833,12.745,0.766,19.058
			c-2.3,4.713-6.136,8.471-11.503,11.283c-5,2.63-12.596,3.979-22.78,4.051c-5.988,0.075-11.209-1.17-15.663-3.722
			c-4.893-2.848-8.03-6.85-9.42-11.995c-1.387-5.182-0.11-9.75,3.833-13.69c3.798-3.725,8.162-5.348,13.091-4.875
			c3.503,0.366,6.276,1.406,8.322,3.121c2.447,2.044,3.451,4.817,3.011,8.32c-0.293,2.739-1.46,4.623-3.504,5.646
			c-2.193,1.131-4.166,0.526-5.915-1.81c0,0.072-0.019,0.093-0.055,0.056l-0.053-0.056v-0.051c1.896,4.266,4.745,5.786,8.544,4.544
			c1.715-0.551,2.975-1.77,3.776-3.672c0.623-1.459,1.006-3.34,1.151-5.639c0.33-5.257-2.482-9.713-8.434-13.361
			c-1.06-0.658-2.319-1.391-3.778-2.193l-1.973-0.984l-1.971-0.988c-3.142-1.606-5.386-2.991-6.735-4.16
			c-3.214-2.666-5.517-5.824-6.902-9.476c-1.278-3.394-1.661-6.99-1.149-10.787c0.658-5.443,2.957-10.08,6.9-13.913
			c3.687-3.652,8.251-6.043,13.69-7.172c8.799-1.466,17.234-0.948,25.303,1.531c6.936,2.885,10.822,7.721,11.663,14.515
			c0.328,2.775,0.365,5.312,0.111,7.612c-0.366,3.026-1.224,5.436-2.573,7.228c-1.826,2.444-4.455,3.815-7.887,4.105
			c-3.36,0.257-6.134-0.64-8.323-2.684c-1.899-1.754-2.938-3.832-3.121-6.241c-0.183-2.558,0.822-4.474,3.01-5.754
			c1.278-0.728,2.721-0.852,4.327-0.383c1.645,0.437,2.829,1.316,3.561,2.629c-0.731-1.97-1.535-3.34-2.41-4.105
			c-0.912-0.803-2.447-1.403-4.601-1.809c-3.507-0.731-6.188,0.164-8.051,2.684c-1.68,2.338-2.115,5.077-1.312,8.214
			c0.688,2.666,2.464,5.005,5.312,7.012c0.947,0.656,2.246,1.426,3.889,2.301l2.026,1.147L774.686,547.815z"/>
	</g>
</g>
</svg>
